<svg width="39" height="39" viewBox="0 0 39 39" fill="none" xmlns="http://www.w3.org/2000/svg">
<circle cx="19.5" cy="19.5" r="19.5" fill="#245EB5"/>
<g clip-path="url(#clip0_77_580)">
<path d="M24.2038 9H14.7946C11.5992 9 9 11.6007 9 14.7962V24.2054C9 27.4008 11.5992 30 14.7946 30H24.2038C27.3993 30 30 27.4008 30 24.2054V14.7962C30 11.6007 27.3993 9 24.2038 9ZM28.1368 24.2054C28.1368 26.3745 26.3729 28.1368 24.2038 28.1368H14.7946C12.6255 28.1368 10.8632 26.3745 10.8632 24.2054V14.7962C10.8632 12.6271 12.6255 10.8632 14.7946 10.8632H24.2038C26.3729 10.8632 28.1368 12.6271 28.1368 14.7962V24.2054Z" fill="white"/>
<path d="M24.2039 10.8633H14.7947C12.6256 10.8633 10.8633 12.6271 10.8633 14.7962V24.2055C10.8633 26.3746 12.6256 28.1368 14.7947 28.1368H24.2039C26.373 28.1368 28.1368 26.3746 28.1368 24.2055V14.7962C28.1368 12.6271 26.373 10.8633 24.2039 10.8633ZM19.4993 24.9119C16.515 24.9119 14.0882 22.4851 14.0882 19.5008C14.0882 16.5166 16.515 14.0898 19.4993 14.0898C22.4835 14.0898 24.9104 16.5181 24.9104 19.5008C24.9104 22.4835 22.4835 24.9119 19.4993 24.9119ZM26.1044 14.8428C25.8498 15.0959 25.4973 15.2418 25.1371 15.2418C24.7768 15.2418 24.4259 15.0959 24.1729 14.8428C23.9198 14.5897 23.7707 14.2357 23.7707 13.877C23.7707 13.5184 23.9167 13.1628 24.1729 12.9097C24.4259 12.6551 24.7784 12.5107 25.1371 12.5107C25.4957 12.5107 25.8498 12.6551 26.1044 12.9097C26.359 13.1628 26.5034 13.5168 26.5034 13.877C26.5034 14.2373 26.359 14.5882 26.1044 14.8428Z" fill="white"/>
</g>
<defs>
<clipPath id="clip0_77_580">
<rect width="21" height="21" fill="white" transform="translate(9 9)"/>
</clipPath>
</defs>
</svg>
