<svg width="174" height="179" viewBox="0 0 174 179" fill="none" xmlns="http://www.w3.org/2000/svg">
<rect x="0.707107" y="90.1344" width="125.25" height="124.286" rx="9.5" transform="rotate(-45 0.707107 90.1344)" stroke="#DCDCDC"/>
<g clip-path="url(#clip0_65_1124)">
<path d="M141.39 106.31L130.58 88.5501C130.41 88.2801 130.09 88.1401 129.78 88.2101C129.46 88.2801 129.23 88.5401 129.19 88.8601L128.42 95.8101L112.32 67.1401C112.32 67.1401 112.29 67.1001 112.27 67.0801C112.24 67.0201 112.19 66.9701 112.14 66.9401C112.09 66.8901 112.03 66.8501 111.97 66.8301C111.93 66.8101 111.9 66.7901 111.85 66.7801C111.81 66.7701 111.77 66.7701 111.73 66.7701C111.71 66.7601 111.69 66.7601 111.66 66.7601H111.61C111.61 66.7601 111.53 66.7701 111.49 66.7801C111.43 66.8001 111.37 66.8201 111.31 66.8501C111.23 66.8901 111.16 66.9501 111.11 67.0201C111.08 67.0401 111.06 67.0601 111.05 67.0801L103.39 78.1801L101.76 75.4301C101.62 75.2101 101.38 75.0701 101.11 75.0701H96.4301L86.0801 54.1301C86.0801 54.1301 86.0401 54.0501 86.0101 54.0101C85.9801 53.9801 85.9501 53.9401 85.9101 53.9101C85.8401 53.8401 85.7701 53.7901 85.6801 53.7601C85.6601 53.7501 85.6301 53.7401 85.5901 53.7401C85.5401 53.7201 85.4901 53.7101 85.4401 53.7101H85.3701C85.3701 53.7101 85.3501 53.7101 85.3401 53.7101C85.2401 53.7201 85.1301 53.7501 85.0401 53.8001C84.9901 53.8201 84.9501 53.8501 84.9201 53.8801C84.9001 53.9001 84.8801 53.9201 84.8701 53.9301C84.8001 54.0001 84.7501 54.0801 84.7101 54.1701L72.6301 76.9301L69.5201 82.7801H64.5601C64.3001 82.7801 64.0501 82.9201 63.9101 83.1501L50.5301 106.32C50.4001 106.55 50.4001 106.84 50.5301 107.07C50.6701 107.3 50.9101 107.44 51.1801 107.44H140.75C141.02 107.44 141.27 107.3 141.4 107.06C141.53 106.82 141.53 106.53 141.39 106.3V106.31Z" fill="#F2F1E3"/>
<path d="M94.9099 75.8701L92.6799 72.1101H87.5299L83.6799 64.3201" stroke="#CAA57B" stroke-width="1.5" stroke-linecap="round" stroke-linejoin="round"/>
<path d="M80.92 58.7301L76.98 50.7501L61.54 79.8301H56.14L52.3 86.4701" stroke="#CAA57B" stroke-width="1.5" stroke-linecap="round" stroke-linejoin="round"/>
<path d="M48.51 93.0302L42.75 103H132.32L129.19 97.8602" stroke="#CAA57B" stroke-width="1.5" stroke-linecap="round" stroke-linejoin="round"/>
<path d="M125.62 91.9902L121.51 85.2402L120.48 94.5102L110.89 77.4302" stroke="#CAA57B" stroke-width="1.5" stroke-linecap="round" stroke-linejoin="round"/>
<path d="M110.8 77.2702L103.24 63.8102C103.24 63.8102 92.65 79.1702 84.73 90.6602" stroke="#CAA57B" stroke-width="1.5" stroke-linecap="round" stroke-linejoin="round"/>
<path d="M79.7099 97.9102L76.2 102.99" stroke="#CAA57B" stroke-width="1.5" stroke-linecap="round" stroke-linejoin="round"/>
<path d="M50.4299 103L60.9899 87.2101L65.5299 95.1101L69.2199 92.1001V103" stroke="#CAA57B" stroke-width="1.5" stroke-linecap="round" stroke-linejoin="round"/>
<path d="M76.9801 50.7501L78.3201 74.4301L71.2001 80.9501L69.2201 72.3701L64.8101 73.6801" stroke="#CAA57B" stroke-width="1.5" stroke-linecap="round" stroke-linejoin="round"/>
<path d="M103.23 63.8002L104.1 75.6702" stroke="#CAA57B" stroke-width="1.5" stroke-linecap="round" stroke-linejoin="round"/>
<path d="M104.48 80.7601L104.82 85.4201L97.87 90.0501L94.78 83.1001L89.02 84.4601" stroke="#CAA57B" stroke-width="1.5" stroke-linecap="round" stroke-linejoin="round"/>
</g>
<defs>
<clipPath id="clip0_65_1124">
<rect width="99.5" height="57.45" fill="white" transform="translate(42 50.0001)"/>
</clipPath>
</defs>
</svg>
