<svg width="174" height="179" viewBox="0 0 174 179" fill="none" xmlns="http://www.w3.org/2000/svg">
<rect x="0.707107" y="90.1344" width="125.25" height="124.286" rx="9.5" transform="rotate(-45 0.707107 90.1344)" stroke="#DCDCDC"/>
<g clip-path="url(#clip0_68_1158)">
<path d="M103.87 76.2301H100.88L99.98 73.0401C101.41 71.4501 102.19 69.4201 102.19 67.2701V58.4301C102.19 56.1401 101.3 53.9901 99.69 52.3801C98.07 50.7501 95.92 49.8601 93.64 49.8601C88.92 49.8601 85.08 53.7001 85.08 58.4301V67.2701C85.08 69.4101 85.85 71.4301 87.29 73.0101L86.39 76.2301H83.4C78.41 76.2301 74.36 80.2801 74.36 85.2701V92.7001C74.36 93.0101 74.55 93.2901 74.83 93.4001L81.64 96.0601L84.07 106.87C84.15 107.22 84.45 107.46 84.8 107.46H89.29V111.08H79.11C78.69 111.08 78.36 111.41 78.36 111.83V121.47C78.36 121.89 78.69 122.22 79.11 122.22H109.93C110.34 122.22 110.68 121.89 110.68 121.47V111.83C110.68 111.41 110.34 111.08 109.93 111.08H99.75V107.46H102.47C102.82 107.46 103.13 107.22 103.2 106.87L105.63 96.0601L112.44 93.4001C112.73 93.2901 112.92 93.0101 112.92 92.7001V85.2701C112.92 80.2801 108.86 76.2301 103.87 76.2301Z" fill="#F2F1E3"/>
<path d="M80.47 58.6801V55.5701C80.47 51.2501 83.97 47.7601 88.28 47.7601C90.44 47.7601 92.38 48.6301 93.8 50.0501C95.21 51.4601 96.08 53.4101 96.08 55.5701V64.4201C96.08 66.5901 95.19 68.5501 93.77 69.9701C92.35 71.3701 90.42 72.2301 88.27 72.2301C86.12 72.2301 84.17 71.3601 82.76 69.9601C81.33 68.5401 80.45 66.5801 80.45 64.4201V63.0101" stroke="#CAA57B" stroke-width="1.5" stroke-linecap="round" stroke-linejoin="round"/>
<path d="M82.78 69.9501L81.6 74.1101H78.04C76.45 74.1101 74.96 74.5601 73.7 75.3401" stroke="#CAA57B" stroke-width="1.5" stroke-linecap="round" stroke-linejoin="round"/>
<path d="M70.31 79.4001C69.95 80.3301 69.75 81.3501 69.75 82.4101V89.8401L76.93 92.6401L79.45 103.84H88.28" stroke="#CAA57B" stroke-width="1.5" stroke-linecap="round" stroke-linejoin="round"/>
<path d="M93.78 69.9701L94.96 74.1201H98.52C103.1 74.1201 106.82 77.8301 106.82 82.4201V89.8501L99.64 92.6501L98.77 96.5001" stroke="#CAA57B" stroke-width="1.5" stroke-linecap="round" stroke-linejoin="round"/>
<path d="M97.44 102.41L97.12 103.85H88.29" stroke="#CAA57B" stroke-width="1.5" stroke-linecap="round" stroke-linejoin="round"/>
<path d="M93.6401 103.85H84.6801V108.91H93.6401V103.85Z" stroke="#CAA57B" stroke-width="1.5" stroke-linecap="round" stroke-linejoin="round"/>
<path d="M80.37 108.97H104.57V118.62H73.75V108.97H77.41" stroke="#CAA57B" stroke-width="1.5" stroke-linecap="round" stroke-linejoin="round"/>
</g>
<defs>
<clipPath id="clip0_68_1158">
<rect width="43.92" height="75.22" fill="white" transform="translate(69 47.0001)"/>
</clipPath>
</defs>
</svg>
