<svg width="174" height="179" viewBox="0 0 174 179" fill="none" xmlns="http://www.w3.org/2000/svg">
<rect x="0.707107" y="90.1344" width="125.25" height="124.286" rx="9.5" transform="rotate(-45 0.707107 90.1344)" stroke="#DCDCDC"/>
<g clip-path="url(#clip0_68_1184)">
<path d="M125.41 88.6202H125.23V60.6602C125.23 60.2502 124.9 59.9102 124.48 59.9102H66.69C66.28 59.9102 65.94 60.2502 65.94 60.6602V88.6202H65.78C65.36 88.6202 65.03 88.9502 65.03 89.3702V96.6202C65.03 97.0402 65.36 97.3702 65.78 97.3702H65.94V111.65C65.94 112.07 66.28 112.4 66.69 112.4H71.97V116.58H70.04C69.62 116.58 69.29 116.92 69.29 117.33V122.43C69.29 122.85 69.62 123.18 70.04 123.18H75.74V127.35C75.74 128.66 76.81 129.72 78.12 129.72H82.33C83.64 129.72 84.7 128.66 84.7 127.35V123.18H106.47V127.35C106.47 128.66 107.54 129.72 108.85 129.72H113.06C114.37 129.72 115.43 128.66 115.43 127.35V123.18H121.15C121.56 123.18 121.9 122.85 121.9 122.43V117.33C121.9 116.92 121.56 116.58 121.15 116.58H119.2V112.4H124.48C124.9 112.4 125.23 112.07 125.23 111.65V97.3702H125.41C125.82 97.3702 126.16 97.0402 126.16 96.6202V89.3702C126.16 88.9502 125.82 88.6202 125.41 88.6202Z" fill="#F2F1E3"/>
<path d="M70 91.0702V94.8102H109.12V74.1202C109.12 71.7402 107.18 69.8102 104.81 69.8102H74.31C71.93 69.8102 70.01 71.7402 70.01 74.1202V84.5702" stroke="#CAA57B" stroke-width="1.5" stroke-linecap="round" stroke-linejoin="round"/>
<path d="M70 83.2302V74.1202C70 71.7402 71.93 69.8102 74.3 69.8102H104.81C107.18 69.8102 109.12 71.7402 109.12 74.1202V94.8102H70V92.6702" stroke="#CAA57B" stroke-width="1.5" stroke-linecap="round" stroke-linejoin="round"/>
<path d="M63.42 91.7101H66.66" stroke="#CAA57B" stroke-width="1.5" stroke-linecap="round" stroke-linejoin="round"/>
<path d="M115.71 91.7101H112.46" stroke="#CAA57B" stroke-width="1.5" stroke-linecap="round" stroke-linejoin="round"/>
<path d="M83.91 94.8101L81.46 90.6001" stroke="#CAA57B" stroke-width="1.5" stroke-linecap="round" stroke-linejoin="round"/>
<path d="M72.33 90.6001H87.25" stroke="#CAA57B" stroke-width="1.5" stroke-linecap="round" stroke-linejoin="round"/>
<path d="M103.45 94.8101L101 90.6001" stroke="#CAA57B" stroke-width="1.5" stroke-linecap="round" stroke-linejoin="round"/>
<path d="M91.87 90.6001H106.79" stroke="#CAA57B" stroke-width="1.5" stroke-linecap="round" stroke-linejoin="round"/>
<path d="M115.12 112.42H64.01V117.52H115.12V112.42Z" stroke="#CAA57B" stroke-width="1.5" stroke-linecap="round" stroke-linejoin="round"/>
<path d="M70.47 117.51H77.93V122.43C77.93 123.32 77.2 124.05 76.31 124.05H72.09C71.2 124.05 70.47 123.32 70.47 122.43V117.51Z" stroke="#CAA57B" stroke-width="1.5" stroke-linecap="round" stroke-linejoin="round"/>
<path d="M101.2 117.51H108.66V122.43C108.66 123.32 107.93 124.05 107.04 124.05H102.82C101.93 124.05 101.2 123.32 101.2 122.43V117.51Z" stroke="#CAA57B" stroke-width="1.5" stroke-linecap="round" stroke-linejoin="round"/>
<path d="M63.42 84.4501H59.75V91.7101H63.42V84.4501Z" stroke="#CAA57B" stroke-width="1.5" stroke-linecap="round" stroke-linejoin="round"/>
<path d="M119.38 84.4501H115.7V91.7101H119.38V84.4501Z" stroke="#CAA57B" stroke-width="1.5" stroke-linecap="round" stroke-linejoin="round"/>
<path d="M107.18 104.05H95.6V109.41H107.18V104.05Z" stroke="#CAA57B" stroke-width="1.5" stroke-linecap="round" stroke-linejoin="round"/>
<path d="M83.5199 104.05H71.9399V109.41H83.5199V104.05Z" stroke="#CAA57B" stroke-width="1.5" stroke-linecap="round" stroke-linejoin="round"/>
<path d="M70 81.0701V74.1301C70 71.7501 71.93 69.8201 74.3 69.8201H104.81C107.18 69.8201 109.12 71.7501 109.12 74.1301V94.8201H70V90.2501M104.81 66.5201H74.31C70.12 66.5201 66.7 69.9201 66.7 74.1301V112.42H112.43V74.1301C112.43 69.9201 109.03 66.5201 104.82 66.5201H104.81ZM83.52 109.41H71.94V104.05H83.52V109.41ZM107.18 109.41H95.5999V104.05H107.18V109.41Z" stroke="#CAA57B" stroke-width="1.5" stroke-linecap="round" stroke-linejoin="round"/>
<path d="M60.66 65.4301V55.7501H101.65" stroke="#CAA57B" stroke-width="1.5" stroke-linecap="round" stroke-linejoin="round"/>
<path d="M111.91 55.7501H118.46V84.4501H115.71V91.7101H118.46V106.74H112.43V74.1301C112.43 69.9201 109.03 66.5201 104.82 66.5201H74.31C70.12 66.5201 66.7 69.9201 66.7 74.1301V106.74H60.66V91.7101H63.41V84.4501H60.66V75.9501" stroke="#CAA57B" stroke-width="1.5" stroke-linecap="round" stroke-linejoin="round"/>
</g>
<defs>
<clipPath id="clip0_68_1184">
<rect width="67.16" height="74.72" fill="white" transform="translate(59 55.0001)"/>
</clipPath>
</defs>
</svg>
