<svg width="39" height="39" viewBox="0 0 39 39" fill="none" xmlns="http://www.w3.org/2000/svg">
<circle cx="19.5" cy="19.5" r="19.5" fill="#245EB5"/>
<g clip-path="url(#clip0_77_585)">
<mask id="mask0_77_585" style="mask-type:luminance" maskUnits="userSpaceOnUse" x="14" y="10" width="10" height="18">
<path d="M24 10.0234H14V28.0001H24V10.0234Z" fill="white"/>
</mask>
<g mask="url(#mask0_77_585)">
<path d="M23.5262 10.0024H21.1524C18.4857 10.0001 16.7619 11.7347 16.7619 14.423V16.4637H14.3738C14.169 16.4637 14 16.6274 14 16.8308V19.7856C14 19.9866 14.1667 20.1526 14.3738 20.1526H16.7619V27.6097C16.7619 27.8108 16.9286 27.9767 17.1357 27.9767H20.25C20.4571 27.9767 20.6238 27.8131 20.6238 27.6097V20.1526H23.4143C23.6214 20.1526 23.7881 19.9889 23.7881 19.7856V16.8308C23.7881 16.7349 23.75 16.6414 23.681 16.5713C23.6119 16.5035 23.5167 16.4637 23.4167 16.4637H20.6238V14.7339C20.6238 13.904 20.8262 13.4809 21.9286 13.4809H23.5286C23.7357 13.4809 23.9024 13.3149 23.9024 13.1139V10.3718C23.9024 10.1684 23.7357 10.0048 23.531 10.0048L23.5262 10.0024Z" fill="white"/>
</g>
</g>
<defs>
<clipPath id="clip0_77_585">
<rect width="10" height="18" fill="white" transform="translate(14 10)"/>
</clipPath>
</defs>
</svg>
