<svg width="174" height="178" viewBox="0 0 174 178" fill="none" xmlns="http://www.w3.org/2000/svg">
<rect x="0.707107" y="89.272" width="125.25" height="124.286" rx="9.5" transform="rotate(-45 0.707107 89.272)" stroke="#DCDCDC"/>
<g clip-path="url(#clip0_8_567)">
<path d="M138.43 80.1499C137.15 80.3399 135.9 80.5799 134.74 80.8599C134.39 80.9399 134.05 81.0399 133.71 81.1299L133.76 78.0199C133.76 77.8199 133.69 77.6299 133.55 77.4799C133.42 77.3399 133.23 77.2599 133.03 77.2599L129.56 77.1999C128.74 70.9699 126.39 65.0199 122.72 59.8999L125.21 57.4899C125.35 57.3499 125.43 57.1599 125.43 56.9599C125.44 56.7599 125.36 56.5699 125.22 56.4199L118.3 49.2699C118.17 49.1299 117.98 49.0499 117.78 49.0499C117.58 49.0699 117.39 49.1199 117.24 49.2599L114.75 51.6799C109.74 47.8499 103.86 45.3099 97.68 44.2899L97.74 40.8099C97.74 40.6099 97.66 40.4199 97.52 40.2699C97.39 40.1299 97.2 40.0499 97 40.0499L87.06 39.8899C86.85 39.8999 86.67 39.9599 86.52 40.0999C86.38 40.2399 86.3 40.4299 86.3 40.6299L86.25 44.0999C80.02 44.9199 74.05 47.2799 68.94 50.9399L66.52 48.4399C66.24 48.1499 65.76 48.1399 65.46 48.4299L58.32 55.3399C58.18 55.4799 58.1 55.6699 58.09 55.8599C58.09 56.0599 58.17 56.2599 58.31 56.3999L60.73 58.8999C56.9 63.8899 54.35 69.7699 53.33 75.9699L49.85 75.9099C49.66 75.8999 49.46 75.9799 49.31 76.1199C49.17 76.2599 49.09 76.4499 49.09 76.6399L48.92 86.5799C48.92 86.9999 49.25 87.3399 49.66 87.3499L53.14 87.4099C53.96 93.6399 56.32 99.5899 59.99 104.7L57.48 107.12C57.34 107.26 57.26 107.44 57.26 107.64C57.25 107.84 57.33 108.04 57.47 108.18L64.39 115.32C64.53 115.47 64.73 115.55 64.92 115.55C65.11 115.55 65.3 115.48 65.45 115.34L67.94 112.92C70.17 114.64 72.58 116.1 75.12 117.26C75.09 117.27 75.07 117.28 75.04 117.29C73.37 117.82 71.78 118.21 70.17 118.48C68.59 118.74 66.96 118.88 65.32 118.89C63.72 118.9 62.08 118.77 60.47 118.52C58.89 118.27 57.25 117.89 55.61 117.37C54.02 116.88 52.38 116.25 50.73 115.48C49.13 114.75 47.48 113.88 45.82 112.88C45.4 112.63 44.99 112.38 44.56 112.11C44.21 111.89 43.75 112 43.53 112.35C43.31 112.7 43.42 113.16 43.77 113.38C44.08 113.58 44.39 113.76 44.7 113.95V122.11C44.7 122.52 45.03 122.86 45.45 122.86C45.87 122.86 46.2 122.52 46.2 122.11V114.81C47.36 115.48 48.52 116.1 49.67 116.63V122.11C49.67 122.52 50 122.86 50.42 122.86C50.84 122.86 51.17 122.52 51.17 122.11V117.3C52.33 117.8 53.5 118.25 54.63 118.62V122.11C54.63 122.52 54.97 122.86 55.38 122.86C55.79 122.86 56.13 122.52 56.13 122.11V119.07C57.31 119.4 58.47 119.67 59.61 119.87V122.11C59.61 122.52 59.94 122.86 60.36 122.86C60.78 122.86 61.11 122.52 61.11 122.11V120.1C62.26 120.25 63.42 120.34 64.57 120.36V122.11C64.57 122.52 64.91 122.86 65.32 122.86C65.73 122.86 66.07 122.52 66.07 122.11V120.35C67.24 120.32 68.4 120.22 69.55 120.06V122.11C69.55 122.52 69.88 122.86 70.3 122.86C70.72 122.86 71.05 122.52 71.05 122.11V119.83C72.19 119.62 73.35 119.34 74.51 119V122.11C74.51 122.52 74.85 122.86 75.26 122.86C75.67 122.86 76.01 122.52 76.01 122.11V118.54C76.39 118.41 76.77 118.29 77.15 118.15H77.16C77.89 118.44 78.67 118.72 79.49 118.99V122.11C79.49 122.52 79.82 122.86 80.24 122.86C80.66 122.86 80.99 122.52 80.99 122.11V119.44C82.14 119.76 83.3 120.02 84.45 120.22V122.11C84.45 122.44 84.67 122.71 84.97 122.81L84.95 123.79C84.95 123.99 85.03 124.18 85.17 124.33C85.3 124.47 85.49 124.55 85.69 124.56L95.63 124.72H95.65C95.84 124.72 96.03 124.64 96.17 124.5C96.31 124.37 96.39 124.18 96.4 123.98L96.45 120.5C97.43 120.38 98.4 120.21 99.36 120.01V122.11C99.36 122.52 99.7 122.86 100.11 122.86C100.52 122.86 100.86 122.52 100.86 122.11V119.66C102.02 119.37 103.18 119.01 104.34 118.59V122.11C104.34 122.52 104.67 122.86 105.09 122.86C105.51 122.86 105.84 122.52 105.84 122.11V118.02C107.04 117.54 108.19 117 109.3 116.42V122.11C109.3 122.52 109.64 122.86 110.05 122.86C110.46 122.86 110.8 122.52 110.8 122.11V115.58C111.84 114.97 112.82 114.33 113.75 113.66L114.28 114.2V122.11C114.28 122.52 114.61 122.86 115.03 122.86C115.45 122.86 115.78 122.52 115.78 122.11V115.76L116.17 116.16C116.3 116.3 116.49 116.38 116.69 116.39H116.7C116.9 116.39 117.09 116.31 117.23 116.18L119.24 114.23V122.11C119.24 122.52 119.58 122.86 119.99 122.86C120.4 122.86 120.74 122.52 120.74 122.11V112.78L124.22 109.41V122.11C124.22 122.52 124.55 122.86 124.97 122.86C125.39 122.86 125.72 122.52 125.72 122.11V99.7599C127.34 96.5699 128.5 93.2099 129.18 89.7299V122.11C129.18 122.52 129.52 122.86 129.93 122.86C130.34 122.86 130.68 122.52 130.68 122.11V88.6599L132.84 88.6999H132.86C133.05 88.6999 133.24 88.6199 133.38 88.4899C133.52 88.3499 133.6 88.1599 133.61 87.9599L133.69 82.6899C133.84 82.6499 134 82.6099 134.15 82.5699V122.11C134.15 122.52 134.49 122.86 134.9 122.86C135.31 122.86 135.65 122.52 135.65 122.11V82.1999C136.62 81.9799 137.61 81.7899 138.64 81.6399C139.05 81.5799 139.34 81.1999 139.28 80.7899C139.22 80.3799 138.83 80.0999 138.43 80.1499ZM92.09 49.3399L96.84 49.4199H96.86C96.93 49.4199 97 49.3999 97.07 49.3799C97.14 49.3599 97.2 49.3399 97.26 49.2999C97.3 49.2799 97.34 49.2399 97.38 49.2099C97.52 49.0699 97.6 48.8799 97.61 48.6799L97.66 45.7999C103.45 46.7899 108.94 49.1699 113.66 52.7299L111.59 54.7399C111.3 55.0299 111.29 55.4999 111.59 55.7999L114.15 58.4499L96.57 76.0299C95.29 74.9699 93.75 74.3299 92.1 74.1899V49.3399H92.09ZM61.78 59.9699L63.78 62.0399C63.91 62.1799 64.1 62.2599 64.3 62.2699C64.52 62.2699 64.69 62.1899 64.84 62.0499L67.48 59.4899L85.08 77.0899C84.01 78.3599 83.38 79.8999 83.24 81.5499H58.38L58.45 76.7899C58.45 76.5899 58.38 76.3999 58.24 76.2499C58.11 76.1099 57.92 76.0299 57.72 76.0299L54.84 75.9799C55.84 70.1799 58.22 64.6799 61.78 59.9699ZM67.51 105.08L64.2 101.66C63.91 101.37 63.44 101.36 63.14 101.65L61.07 103.65C57.67 98.8299 55.46 93.2599 54.66 87.4299L57.53 87.4799H57.55C57.74 87.4799 57.93 87.3999 58.07 87.2599C58.21 87.1299 58.29 86.9399 58.3 86.7399L58.36 83.0599H83.24C83.38 84.6999 84.01 86.2399 85.08 87.5099L67.51 105.08ZM79.49 117.41C79.4 117.38 79.31 117.35 79.23 117.32C79.32 117.28 79.4 117.24 79.49 117.2V117.41ZM84.45 118.69C83.28 118.48 82.12 118.2 80.99 117.86V116.51C82.12 115.96 83.27 115.37 84.45 114.69V118.69ZM89.42 115.24L85.95 115.18V113.8C87.09 113.12 88.26 112.37 89.42 111.58V115.24ZM90.59 108.96C90.31 109.16 90.03 109.36 89.74 109.56C88.08 110.73 86.43 111.8 84.82 112.75C83.12 113.77 81.51 114.63 79.92 115.37C78.97 115.81 78.05 116.19 77.17 116.54C74.27 115.34 71.54 113.77 69.03 111.87L71.1 109.86C71.39 109.58 71.4 109.1 71.11 108.81L68.55 106.17L86.14 88.5799C87.42 89.6399 88.95 90.2799 90.59 90.4199V108.96ZM90.59 74.1799C88.95 74.3199 87.42 74.9599 86.14 76.0199L68.57 58.4499L71.98 55.1499C72.27 54.8599 72.28 54.3799 71.99 54.0899L70 52.0199C74.82 48.6099 80.39 46.4099 86.22 45.6099L86.18 48.4799C86.17 48.6799 86.25 48.8799 86.39 49.0199C86.52 49.1599 86.71 49.2399 86.91 49.2499L90.59 49.3099V74.1799ZM94.4 115.33L92.09 115.29V109.73C92.9 109.15 93.66 108.58 94.4 108.03V115.33ZM99.36 118.47C98.41 118.68 97.44 118.86 96.47 118.99L96.51 116.11C96.51 115.91 96.44 115.72 96.3 115.57C96.27 115.54 96.23 115.5 96.19 115.48C96.14 115.44 96.07 115.41 96.01 115.39C95.98 115.37 95.94 115.36 95.9 115.36V106.88C97.1 105.96 98.28 105.03 99.36 104.17V118.47ZM104.34 116.99C103.19 117.42 102.02 117.79 100.86 118.1V102.96L102.71 101.47C103.25 101.04 103.79 100.6 104.34 100.17V116.99ZM105.1 97.6499L104.62 98.0299C103.66 98.7899 102.71 99.5499 101.77 100.32L99.65 102.02C98.18 103.19 96.45 104.58 94.68 105.92C93.86 106.56 93 107.21 92.09 107.87V90.4199C93.74 90.2799 95.28 89.6399 96.56 88.5799L105.4 97.4099C105.3 97.4899 105.2 97.5699 105.1 97.6499ZM109.3 114.71C108.2 115.32 107.04 115.89 105.84 116.4V98.9799L106.03 98.8199C106.18 98.7099 106.32 98.5899 106.47 98.4799L109.3 101.32V114.71ZM109.3 99.1899L107.66 97.5399C108.2 97.0999 108.75 96.6799 109.3 96.2499V99.1899ZM110.8 113.83V110.62L112.7 112.58C112.1 113 111.46 113.42 110.8 113.83ZM110.8 109.35V102.81L114.13 106.14L110.8 109.35ZM114.28 104.16L110.8 100.69V95.0899C112.01 94.1799 113.15 93.3499 114.28 92.5599V104.16ZM119.24 102.88L118.91 102.54C118.63 102.25 118.15 102.24 117.85 102.53L115.78 104.53V91.5199C116.95 90.7099 118.11 89.9599 119.24 89.2499V102.88ZM124.22 108.03L121.97 105.71C122.78 104.66 123.53 103.56 124.22 102.44V108.03ZM124.22 99.4099C123.27 101.24 122.17 102.98 120.92 104.62L120.74 104.44V88.3499C121.89 87.6699 123.05 87.0399 124.22 86.4499V99.4099ZM124.29 84.7099C122.74 85.4899 121.17 86.3399 119.61 87.2699C118 88.2299 116.31 89.3199 114.6 90.5099C112.99 91.6099 111.36 92.7899 109.6 94.1299C108.58 94.9099 107.58 95.6899 106.59 96.4799L97.62 87.5099C98.69 86.2399 99.33 84.6999 99.47 83.0599H124.32L124.29 84.7099ZM125.16 77.1199C124.96 77.1299 124.77 77.1899 124.62 77.3299C124.48 77.4699 124.4 77.6599 124.4 77.8499L124.34 81.5499H99.47C99.33 79.8999 98.69 78.3599 97.62 77.0899L115.19 59.5199L118.49 62.9299C118.63 63.0799 118.83 63.1599 119.03 63.1599C119.21 63.1599 119.4 63.0899 119.55 62.9499L121.62 60.9499C125.03 65.7699 127.24 71.3399 128.04 77.1599L125.16 77.1199ZM125.72 96.1299V88.5699L127.86 88.6099C127.42 91.1899 126.7 93.6999 125.72 96.1299Z" fill="#F2F1E3"/>
<path d="M119.43 105.84L115.58 109.57L112.29 112.75L110.61 111.01L109.43 109.79L106.82 107.1L110.61 103.43L110.78 103.26L113.96 100.19L115.58 101.86L116.57 102.88L119.43 105.84Z" stroke="#CAA57B" stroke-width="1.5" stroke-linecap="round" stroke-linejoin="round"/>
<path d="M67.04 51.7301L63.08 55.5601L59.9 58.6401L57.3 55.9501L54.43 52.9901L61.57 46.0801L64.44 49.0401L67.04 51.7301Z" stroke="#CAA57B" stroke-width="1.5" stroke-linecap="round" stroke-linejoin="round"/>
<path d="M53.59 61.5899C54.66 59.5899 55.9 57.7099 57.3 55.9499L59.9 58.6399L63.08 55.5599L67.04 51.7299L64.44 49.0399C69.62 45.1999 75.82 42.6499 82.57 41.8799L82.51 45.6199L86.93 45.6899L92.44 45.7799L92.5 42.0399C99.19 43.0199 105.32 45.7699 110.39 49.7799L107.7 52.3899L110.78 55.5699L114.61 59.5299L117.31 56.9199C119.01 59.2099 120.46 61.6999 121.61 64.3499" stroke="#CAA57B" stroke-width="1.5" stroke-linecap="round" stroke-linejoin="round"/>
<path d="M123.02 68.14C123.71 70.36 124.21 72.67 124.48 75.05L120.73 74.9901L120.66 79.42L120.61 82.3L120.57 84.93L124.32 84.9901C123.71 89.1601 122.41 93.1 120.55 96.71C119.42 98.9 118.08 100.97 116.57 102.88L115.58 101.86L113.96 100.19L110.78 103.26L110.61 103.43L106.82 107.1L109.43 109.79C108.22 110.69 106.95 111.51 105.64 112.26C104.05 113.17 102.39 113.96 100.67 114.64C99.06 115.26 97.4 115.78 95.7 116.18C94.26 116.53 92.79 116.79 91.29 116.96L91.35 113.21H90.73L86.93 113.14L85.76 113.12L81.42 113.05L81.36 116.8C81.17 116.77 80.98 116.75 80.79 116.71C79.09 116.44 77.43 116.05 75.82 115.55C74.78 115.23 73.75 114.87 72.75 114.46C69.39 113.1 66.27 111.27 63.47 109.05L66.16 106.44L63.09 103.26L59.25 99.3L56.56 101.9C52.71 96.7201 50.16 90.52 49.39 83.78L53.13 83.84L53.2 79.42L53.29 73.9001L49.55 73.84C49.98 70.96 50.73 68.18 51.76 65.55" stroke="#CAA57B" stroke-width="1.5" stroke-linecap="round" stroke-linejoin="round"/>
<path d="M128.6 75.12L128.53 79.22L128.44 85.06L125.52 85.01L124.32 84.99L120.57 84.93L120.61 82.3L120.66 79.42L120.73 74.99L124.48 75.05L128.6 75.12Z" stroke="#CAA57B" stroke-width="1.5" stroke-linecap="round" stroke-linejoin="round"/>
<path d="M39.75 109.86C40.18 110.13 40.6 110.39 41.03 110.64C42.72 111.66 44.38 112.54 46 113.28C47.69 114.06 49.35 114.7 50.97 115.2C52.66 115.73 54.32 116.12 55.94 116.37C57.64 116.64 59.29 116.76 60.91 116.75C62.6 116.74 64.25 116.6 65.88 116.33C67.57 116.05 69.22 115.64 70.85 115.12C71.49 114.92 72.12 114.7 72.75 114.46C73.78 114.07 74.81 113.63 75.82 113.16C77.5 112.38 79.15 111.49 80.79 110.51C82.46 109.52 84.12 108.44 85.76 107.29C86.15 107.02 86.54 106.74 86.93 106.46C88.2 105.55 89.47 104.61 90.73 103.63C92.39 102.36 94.04 101.05 95.7 99.7201C97.35 98.4001 99 97.06 100.67 95.73C101.15 95.35 101.63 94.96 102.11 94.59C103.28 93.66 104.45 92.75 105.64 91.84C107.27 90.6 108.93 89.3901 110.61 88.2401C112.24 87.1101 113.9 86.03 115.58 85.03C117.21 84.05 118.86 83.1501 120.55 82.3301L120.61 82.3" stroke="#CAA57B" stroke-width="1.5" stroke-linecap="round" stroke-linejoin="round"/>
<path d="M128.53 79.22C129.18 79.04 129.83 78.86 130.49 78.71C131.68 78.42 132.89 78.19 134.12 78.01" stroke="#CAA57B" stroke-width="1.5" stroke-linecap="round" stroke-linejoin="round"/>
<path d="M130.49 119.22V78.71" stroke="#CAA57B" stroke-width="1.5" stroke-linecap="round" stroke-linejoin="round"/>
<path d="M125.52 119.22V85.01" stroke="#CAA57B" stroke-width="1.5" stroke-linecap="round" stroke-linejoin="round"/>
<path d="M120.55 119.22V82.3301" stroke="#CAA57B" stroke-width="1.5" stroke-linecap="round" stroke-linejoin="round"/>
<path d="M115.58 101.86V85.03" stroke="#CAA57B" stroke-width="1.5" stroke-linecap="round" stroke-linejoin="round"/>
<path d="M115.58 119.22V109.57" stroke="#CAA57B" stroke-width="1.5" stroke-linecap="round" stroke-linejoin="round"/>
<path d="M110.61 88.24V103.09V103.43" stroke="#CAA57B" stroke-width="1.5" stroke-linecap="round" stroke-linejoin="round"/>
<path d="M110.61 119.22V111.01" stroke="#CAA57B" stroke-width="1.5" stroke-linecap="round" stroke-linejoin="round"/>
<path d="M105.64 119.22V91.8401" stroke="#CAA57B" stroke-width="1.5" stroke-linecap="round" stroke-linejoin="round"/>
<path d="M100.67 119.22V110.48" stroke="#CAA57B" stroke-width="1.5" stroke-linecap="round" stroke-linejoin="round"/>
<path d="M100.67 104.85V95.73" stroke="#CAA57B" stroke-width="1.5" stroke-linecap="round" stroke-linejoin="round"/>
<path d="M95.7 119.22V99.72" stroke="#CAA57B" stroke-width="1.5" stroke-linecap="round" stroke-linejoin="round"/>
<path d="M90.73 113.2V103.63" stroke="#CAA57B" stroke-width="1.5" stroke-linecap="round" stroke-linejoin="round"/>
<path d="M85.76 113.12V107.29" stroke="#CAA57B" stroke-width="1.5" stroke-linecap="round" stroke-linejoin="round"/>
<path d="M80.79 119.22V110.51" stroke="#CAA57B" stroke-width="1.5" stroke-linecap="round" stroke-linejoin="round"/>
<path d="M75.82 119.22V113.16" stroke="#CAA57B" stroke-width="1.5" stroke-linecap="round" stroke-linejoin="round"/>
<path d="M70.85 119.22V115.12" stroke="#CAA57B" stroke-width="1.5" stroke-linecap="round" stroke-linejoin="round"/>
<path d="M65.88 119.22V116.33" stroke="#CAA57B" stroke-width="1.5" stroke-linecap="round" stroke-linejoin="round"/>
<path d="M60.91 119.22V116.75" stroke="#CAA57B" stroke-width="1.5" stroke-linecap="round" stroke-linejoin="round"/>
<path d="M55.94 119.22V116.37" stroke="#CAA57B" stroke-width="1.5" stroke-linecap="round" stroke-linejoin="round"/>
<path d="M50.97 119.22V115.2" stroke="#CAA57B" stroke-width="1.5" stroke-linecap="round" stroke-linejoin="round"/>
<path d="M46 119.22V113.28" stroke="#CAA57B" stroke-width="1.5" stroke-linecap="round" stroke-linejoin="round"/>
<path d="M41.03 119.22V110.64" stroke="#CAA57B" stroke-width="1.5" stroke-linecap="round" stroke-linejoin="round"/>
<path d="M91.35 113.21L91.29 116.96L91.23 121.08L81.29 120.92L81.36 116.8L81.42 113.05L85.76 113.12L86.93 113.14L90.73 113.2L91.35 113.21Z" stroke="#CAA57B" stroke-width="1.5" stroke-linecap="round" stroke-linejoin="round"/>
<path d="M66.16 106.44L63.47 109.05L60.51 111.91L53.59 104.77L56.56 101.9L59.25 99.3L63.09 103.26L66.16 106.44Z" stroke="#CAA57B" stroke-width="1.5" stroke-linecap="round" stroke-linejoin="round"/>
<path d="M53.29 73.9L53.2 79.42L53.13 83.84L49.39 83.78L45.26 83.71L45.42 73.77L49.55 73.84L53.29 73.9Z" stroke="#CAA57B" stroke-width="1.5" stroke-linecap="round" stroke-linejoin="round"/>
<path d="M92.57 37.91L92.5 42.04L92.44 45.78L86.93 45.69L82.51 45.62L82.57 41.88L82.63 37.75L92.57 37.91Z" stroke="#CAA57B" stroke-width="1.5" stroke-linecap="round" stroke-linejoin="round"/>
<path d="M120.27 54.0599L117.31 56.9199L114.61 59.5299L110.78 55.5699L107.7 52.3899L110.39 49.7799L113.35 46.9099L120.27 54.0599Z" stroke="#CAA57B" stroke-width="1.5" stroke-linecap="round" stroke-linejoin="round"/>
<path d="M86.93 72.0099V45.6899" stroke="#CAA57B" stroke-width="1.5" stroke-linecap="round" stroke-linejoin="round"/>
<path d="M94.34 79.42C94.34 81.46 93.51 83.31 92.17 84.65C90.83 85.99 88.97 86.82 86.93 86.82C84.89 86.82 83.04 85.99 81.7 84.65C80.36 83.31 79.53 81.46 79.53 79.42C79.53 77.38 80.36 75.52 81.7 74.18C83.04 72.84 84.89 72.01 86.93 72.01C88.97 72.01 90.83 72.84 92.17 74.18C93.51 75.52 94.34 77.37 94.34 79.42Z" stroke="#CAA57B" stroke-width="1.5" stroke-linecap="round" stroke-linejoin="round"/>
<path d="M90.44 79.4199C90.44 80.3899 90.05 81.2599 89.41 81.8999C88.77 82.5399 87.9 82.9299 86.93 82.9299C85.96 82.9299 85.09 82.5399 84.45 81.8999C83.81 81.2599 83.42 80.3899 83.42 79.4199C83.42 78.4499 83.81 77.5699 84.45 76.9399C85.08 76.3099 85.96 75.9099 86.93 75.9099C87.9 75.9099 88.78 76.2999 89.41 76.9399C90.04 77.5699 90.44 78.4499 90.44 79.4199Z" stroke="#CAA57B" stroke-width="1.5" stroke-linecap="round" stroke-linejoin="round"/>
<path d="M110.78 55.5701L92.17 74.1801" stroke="#CAA57B" stroke-width="1.5" stroke-linecap="round" stroke-linejoin="round"/>
<path d="M120.66 79.4199H101.69" stroke="#CAA57B" stroke-width="1.5" stroke-linecap="round" stroke-linejoin="round"/>
<path d="M97.81 79.4199H94.34" stroke="#CAA57B" stroke-width="1.5" stroke-linecap="round" stroke-linejoin="round"/>
<path d="M92.17 84.6499L102.11 94.5899L105.64 98.1199L110.61 103.09L110.78 103.26" stroke="#CAA57B" stroke-width="1.5" stroke-linecap="round" stroke-linejoin="round"/>
<path d="M86.93 86.8201V106.46V113.14" stroke="#CAA57B" stroke-width="1.5" stroke-linecap="round" stroke-linejoin="round"/>
<path d="M81.7 84.6499L71.88 94.4699" stroke="#CAA57B" stroke-width="1.5" stroke-linecap="round" stroke-linejoin="round"/>
<path d="M67.51 98.8401L63.09 103.26" stroke="#CAA57B" stroke-width="1.5" stroke-linecap="round" stroke-linejoin="round"/>
<path d="M79.53 79.4199H53.2" stroke="#CAA57B" stroke-width="1.5" stroke-linecap="round" stroke-linejoin="round"/>
<path d="M81.7 74.1801L72.61 65.0901" stroke="#CAA57B" stroke-width="1.5" stroke-linecap="round" stroke-linejoin="round"/>
<path d="M69.62 62.1001L63.08 55.5601" stroke="#CAA57B" stroke-width="1.5" stroke-linecap="round" stroke-linejoin="round"/>
</g>
<defs>
<clipPath id="clip0_8_567">
<rect width="100.29" height="87.72" fill="white" transform="translate(39 37)"/>
</clipPath>
</defs>
</svg>
