<svg width="39" height="39" viewBox="0 0 39 39" fill="none" xmlns="http://www.w3.org/2000/svg">
<circle cx="19.5" cy="19.5" r="19.5" fill="#245EB5"/>
<g clip-path="url(#clip0_77_593)">
<path d="M30.9871 17.3597C30.9799 16.9654 30.9458 16.4687 30.8882 15.8662C30.8289 15.2655 30.7462 14.7268 30.6365 14.2536C30.5107 13.7217 30.2392 13.2736 29.8221 12.9078C29.4049 12.5437 28.9177 12.3323 28.3621 12.2735C26.6271 12.0906 24.0075 12 20.4979 12C16.9883 12 14.3705 12.0906 12.6355 12.2735C12.0799 12.3323 11.5963 12.5437 11.1828 12.9078C10.7692 13.272 10.4996 13.72 10.3737 14.2536C10.2568 14.7268 10.1687 15.2655 10.1112 15.8662C10.0519 16.4687 10.0195 16.9654 10.0105 17.3597C10.0033 17.754 9.99792 18.3011 9.99792 19.0008C9.99792 19.7006 10.0015 20.2476 10.0105 20.642C10.0177 21.0363 10.0519 21.533 10.1112 22.1338C10.1687 22.7362 10.2532 23.2732 10.3629 23.7481C10.4888 24.28 10.7603 24.728 11.1774 25.0938C11.5945 25.458 12.0817 25.6694 12.6355 25.7282C14.3705 25.9111 16.9919 26.0017 20.4979 26.0017C24.0039 26.0017 26.6271 25.9111 28.3621 25.7282C28.9177 25.6694 29.4013 25.458 29.8167 25.0938C30.2302 24.7297 30.4999 24.28 30.6257 23.7481C30.7426 23.2748 30.8307 22.7362 30.89 22.1338C30.9494 21.533 30.9817 21.0346 30.9889 20.642C30.9961 20.2476 31.0015 19.7006 31.0015 19.0008C31.0015 18.3011 30.9979 17.754 30.9889 17.3597H30.9871ZM24.6476 19.5915L18.6478 23.0903C18.5382 23.1624 18.4051 23.1993 18.2505 23.1993C18.1336 23.1993 18.0132 23.1708 17.8873 23.1121C17.6302 22.9795 17.5007 22.7765 17.5007 22.4996V15.5004C17.5007 15.2235 17.6302 15.0188 17.8873 14.8879C18.1534 14.757 18.4069 14.7638 18.6478 14.9097L24.6476 18.4102C24.8813 18.5343 25 18.7307 25 19.0008C25 19.271 24.8831 19.4673 24.6476 19.5915Z" fill="white"/>
</g>
<defs>
<clipPath id="clip0_77_593">
<rect width="21" height="14" fill="white" transform="translate(10 12)"/>
</clipPath>
</defs>
</svg>
