<svg width="174" height="178" viewBox="0 0 174 178" fill="none" xmlns="http://www.w3.org/2000/svg">
<rect x="0.707107" y="89.272" width="125.25" height="124.286" rx="9.5" transform="rotate(-45 0.707107 89.272)" stroke="#DCDCDC"/>
<g clip-path="url(#clip0_61_927)">
<path d="M92.4192 69.767C92.4192 71.4476 93.0715 72.3147 93.6489 73.0854C94.1515 73.7598 94.5578 74.2843 94.5578 75.4297C94.5578 75.8686 94.9214 76.2325 95.3598 76.2325C95.7983 76.2325 96.1618 75.8686 96.1618 75.4297C96.1618 73.7491 95.5096 72.882 94.9321 72.1113C94.4295 71.4369 94.0232 70.9124 94.0232 69.767C94.0232 68.6216 94.4188 68.097 94.9321 67.4227C95.5096 66.6626 96.1618 65.7956 96.1618 64.1042C96.1618 62.4129 95.5096 61.5565 94.9321 60.7965C94.4295 60.1221 94.0232 59.5976 94.0232 58.4522C94.0232 57.3068 94.4188 56.7823 94.9321 56.1079C95.5096 55.3479 96.1618 54.4808 96.1618 52.8002C96.1618 52.3613 95.7983 51.9973 95.3598 51.9973C94.9214 51.9973 94.5578 52.3613 94.5578 52.8002C94.5578 53.9456 94.1622 54.4701 93.6489 55.1445C93.0715 55.9045 92.4192 56.7716 92.4192 58.4522C92.4192 60.1328 93.0715 60.9999 93.6489 61.7599C94.1515 62.4343 94.5578 62.9588 94.5578 64.1042C94.5578 65.2496 94.1622 65.7741 93.6489 66.4485C93.0715 67.2086 92.4192 68.0756 92.4192 69.767Z" fill="#F2F1E3"/>
<path d="M100.493 69.767C100.493 71.4476 101.145 72.3147 101.722 73.0854C102.225 73.7598 102.631 74.2843 102.631 75.4297C102.631 75.8686 102.995 76.2325 103.433 76.2325C103.872 76.2325 104.235 75.8686 104.235 75.4297C104.235 73.7491 103.583 72.882 103.005 72.1113C102.503 71.4369 102.097 70.9124 102.097 69.767C102.097 68.6216 102.492 68.097 103.005 67.4227C103.583 66.6626 104.235 65.7956 104.235 64.1042C104.235 62.4129 103.583 61.5565 103.005 60.7965C102.503 60.1221 102.097 59.5976 102.097 58.4522C102.097 57.3068 102.492 56.7823 103.005 56.1079C103.583 55.3479 104.235 54.4808 104.235 52.8002C104.235 52.3613 103.872 51.9973 103.433 51.9973C102.995 51.9973 102.631 52.3613 102.631 52.8002C102.631 53.9456 102.236 54.4701 101.722 55.1445C101.145 55.9045 100.493 56.7716 100.493 58.4522C100.493 60.1328 101.145 60.9999 101.722 61.7599C102.225 62.4343 102.631 62.9588 102.631 64.1042C102.631 65.2496 102.236 65.7741 101.722 66.4485C101.145 67.2086 100.493 68.0756 100.493 69.767Z" fill="#F2F1E3"/>
<path d="M108.566 69.767C108.566 71.4476 109.218 72.3147 109.796 73.0854C110.298 73.7598 110.705 74.2843 110.705 75.4297C110.705 75.8686 111.068 76.2325 111.507 76.2325C111.945 76.2325 112.309 75.8686 112.309 75.4297C112.309 73.7491 111.656 72.882 111.079 72.1113C110.576 71.4369 110.17 70.9124 110.17 69.767C110.17 68.6216 110.566 68.097 111.079 67.4227C111.656 66.6626 112.309 65.7956 112.309 64.1042C112.309 62.4129 111.656 61.5565 111.079 60.7965C110.576 60.1221 110.17 59.5976 110.17 58.4522C110.17 57.3068 110.566 56.7823 111.079 56.1079C111.656 55.3479 112.309 54.4808 112.309 52.8002C112.309 52.3613 111.945 51.9973 111.507 51.9973C111.068 51.9973 110.705 52.3613 110.705 52.8002C110.705 53.9456 110.309 54.4701 109.796 55.1445C109.218 55.9045 108.566 56.7716 108.566 58.4522C108.566 60.1328 109.218 60.9999 109.796 61.7599C110.298 62.4343 110.705 62.9588 110.705 64.1042C110.705 65.2496 110.309 65.7741 109.796 66.4485C109.218 67.2086 108.566 68.0756 108.566 69.767Z" fill="#F2F1E3"/>
<path d="M134.198 82.3983H131.247C131.043 78.4911 127.803 75.3868 123.847 75.3868C121.056 75.3868 118.564 76.9069 117.292 79.3368C116.714 79.1441 116.116 79.0585 115.495 79.0585C113.228 79.0585 111.165 80.3752 110.224 82.3983H79.9615C79.9615 82.3983 79.908 82.2913 79.8545 82.2378L70.4979 72.8712C71.4389 71.683 71.9522 70.2165 71.9522 68.675C71.9522 66.8552 71.2464 65.1532 69.9632 63.8687L62.0288 55.9151C60.7456 54.6306 59.0454 53.9241 57.2275 53.9241C55.4096 53.9241 53.7094 54.6306 52.4262 55.9151C49.7743 58.5699 49.7743 62.8838 52.4262 65.5279L60.3606 73.4707C61.6866 74.7981 63.4296 75.4617 65.1619 75.4617C66.6483 75.4617 68.1454 74.98 69.3644 74.0059L77.7479 82.3983H60.9595C60.521 82.3983 60.1575 82.7516 60.1575 83.2012V99.151C60.1575 115.058 73.0857 128 88.9759 128H106.181C122.072 128 135 115.058 135 99.151V83.2012C135 82.7516 134.647 82.3983 134.198 82.3983Z" fill="#F2F1E3"/>
<path d="M62.9592 69.9062L72.8505 79.808" stroke="#CAA57B" stroke-width="1.5" stroke-linecap="round" stroke-linejoin="round"/>
<path d="M62.5636 61.0213L62.97 61.4281C65.3118 63.7724 65.3118 67.5618 62.97 69.9061C60.6281 72.2505 56.8427 72.2505 54.5009 69.9061L46.5664 61.9633C44.2246 59.619 44.2246 55.8296 46.5664 53.4853C48.9083 51.141 52.6937 51.141 55.0355 53.4853L57.7944 56.2471" stroke="#CAA57B" stroke-width="1.5" stroke-linecap="round" stroke-linejoin="round"/>
<path d="M127.761 88.5427H92.8363" stroke="#CAA57B" stroke-width="1.5" stroke-linecap="round" stroke-linejoin="round"/>
<path d="M88.0885 88.5427H76.08" stroke="#CAA57B" stroke-width="1.5" stroke-linecap="round" stroke-linejoin="round"/>
<path d="M70.4552 88.5427H54.5222" stroke="#CAA57B" stroke-width="1.5" stroke-linecap="round" stroke-linejoin="round"/>
<path d="M88.9226 49.8027C88.9226 52.6288 86.7839 52.6288 86.7839 55.4548C86.7839 58.2808 88.9226 58.2808 88.9226 61.1068C88.9226 63.9328 86.7839 63.9328 86.7839 66.7695C86.7839 69.6063 88.9226 69.5956 88.9226 72.4323" stroke="#CAA57B" stroke-width="1.5" stroke-linecap="round" stroke-linejoin="round"/>
<path d="M96.996 49.8027C96.996 52.6288 94.8573 52.6288 94.8573 55.4548C94.8573 58.2808 96.996 58.2808 96.996 61.1068C96.996 63.9328 94.8573 63.9328 94.8573 66.7695C94.8573 69.6063 96.996 69.5956 96.996 72.4323" stroke="#CAA57B" stroke-width="1.5" stroke-linecap="round" stroke-linejoin="round"/>
<path d="M105.069 49.8027C105.069 52.6288 102.931 52.6288 102.931 55.4548C102.931 58.2808 105.069 58.2808 105.069 61.1068C105.069 63.9328 102.931 63.9328 102.931 66.7695C102.931 69.6063 105.069 69.5956 105.069 72.4323" stroke="#CAA57B" stroke-width="1.5" stroke-linecap="round" stroke-linejoin="round"/>
<path d="M54.6826 99.0974C54.5757 98.1233 54.5222 97.1385 54.5222 96.143V80.1931H127.761V96.143C127.761 111.568 115.153 124.189 99.7442 124.189H82.5387C70.7653 124.189 60.6281 116.824 56.5005 106.462" stroke="#CAA57B" stroke-width="1.5" stroke-linecap="round" stroke-linejoin="round"/>
<path d="M119.163 73.4172C121.976 74.188 124.029 76.7571 124.029 79.8079C124.029 79.9363 124.029 80.0648 124.007 80.1933H104.31C105.005 78.245 106.877 76.8534 109.058 76.8534C109.849 76.8534 110.598 77.0354 111.261 77.3565C111.881 75.7937 113.079 74.5198 114.597 73.8133" stroke="#CAA57B" stroke-width="1.5" stroke-linecap="round" stroke-linejoin="round"/>
</g>
<defs>
<clipPath id="clip0_61_927">
<rect width="91" height="79" fill="white" transform="translate(44 49)"/>
</clipPath>
</defs>
</svg>
