<svg width="174" height="178" viewBox="0 0 174 178" fill="none" xmlns="http://www.w3.org/2000/svg">
<rect x="0.707107" y="89.272" width="125.25" height="124.286" rx="9.5" transform="rotate(-45 0.707107 89.272)" stroke="#DCDCDC"/>
<g clip-path="url(#clip0_61_982)">
<path d="M122.09 66.46C115.53 59.05 106.09 54.71 96.23 54.53C96.1101 54.52 96 54.52 95.8801 54.52H95.84C95.7401 54.51 95.64 54.51 95.5401 54.51C95.4401 54.51 95.34 54.51 95.2401 54.52C95.2201 54.52 95.21 54.52 95.2001 54.53C95.0801 54.52 94.96 54.52 94.85 54.53C84.98 54.72 75.56 59.06 69 66.46C68.97 66.5 68.94 66.53 68.91 66.57C63.19 73.04 60.05 81.37 60.05 90.01C60.05 99.11 63.49 107.76 69.73 114.36C76.33 121.36 85.26 125.31 94.85 125.49C95.09 125.5 95.32 125.5 95.55 125.5C95.78 125.5 96.01 125.5 96.23 125.49H96.25C105.85 125.3 114.77 121.35 121.36 114.36C127.6 107.75 131.04 99.1 131.04 90.01C131.04 80.92 127.86 72.96 122.1 66.46H122.09Z" fill="#F2F1E3"/>
<path d="M56.86 93.22C56.14 90.43 55.75 87.51 55.75 84.49C55.75 75.65 59.06 67.57 64.51 61.44C70.73 54.42 79.76 49.94 89.84 49.76C90.06 49.75 90.28 49.75 90.5 49.75C90.72 49.75 90.94 49.75 91.16 49.76C101.24 49.94 110.27 54.42 116.49 61.44C119.22 64.51 121.41 68.07 122.92 71.98" stroke="#CAA57B" stroke-width="1.5" stroke-linecap="round" stroke-linejoin="round"/>
<path d="M124.8 78.9399C125.09 80.7499 125.24 82.6099 125.24 84.4999C125.24 93.7299 121.64 102.12 115.77 108.34C109.58 114.9 100.85 119.05 91.16 119.23C90.94 119.24 90.72 119.24 90.5 119.24C90.28 119.24 90.06 119.24 89.84 119.23C80.15 119.05 71.42 114.9 65.23 108.34C62.63 105.58 60.47 102.4 58.87 98.9099" stroke="#CAA57B" stroke-width="1.5" stroke-linecap="round" stroke-linejoin="round"/>
<path d="M116.49 61.44C115.14 62.96 113.66 64.36 112.06 65.62C108.66 68.32 104.74 70.39 100.48 71.66C97.32 72.61 93.97 73.12 90.5 73.12C87.03 73.12 83.68 72.61 80.52 71.66C76.25 70.39 72.33 68.31 68.93 65.61C67.33 64.35 65.86 62.96 64.51 61.44C70.73 54.42 79.76 49.94 89.84 49.76C90.06 49.75 90.28 49.75 90.5 49.75C90.72 49.75 90.94 49.75 91.16 49.76C101.24 49.94 110.27 54.42 116.49 61.44Z" stroke="#CAA57B" stroke-width="1.5" stroke-linecap="round" stroke-linejoin="round"/>
<path d="M115.77 108.33C109.58 114.89 100.85 119.04 91.16 119.22C90.94 119.23 90.72 119.23 90.5 119.23C90.28 119.23 90.06 119.23 89.84 119.22C80.15 119.04 71.42 114.89 65.23 108.33C66.54 106.93 67.96 105.65 69.49 104.49C72.81 101.96 76.61 100.02 80.72 98.8199C83.82 97.9099 87.1 97.4199 90.5 97.4199C93.9 97.4199 97.18 97.9099 100.28 98.8199C104.39 100.02 108.18 101.96 111.5 104.48C113.03 105.65 114.46 106.93 115.77 108.33Z" stroke="#CAA57B" stroke-width="1.5" stroke-linecap="round" stroke-linejoin="round"/>
<path d="M83.48 58.2C85.36 52.93 87.82 49.75 90.5 49.75C96.43 49.75 101.24 65.31 101.24 84.49C101.24 103.67 96.43 119.23 90.5 119.23C84.57 119.23 79.76 103.67 79.76 84.49C79.76 78.14 80.29 72.19 81.21 67.07" stroke="#CAA57B" stroke-width="1.5" stroke-linecap="round" stroke-linejoin="round"/>
<path d="M113.62 99.64C113.01 101.34 112.3 102.96 111.5 104.48C106.97 113.18 99.5701 118.93 91.1601 119.22C90.9401 119.23 90.7201 119.23 90.5001 119.23C90.2801 119.23 90.0601 119.23 89.8401 119.22C81.4301 118.93 74.0201 113.18 69.4901 104.49C66.5401 98.84 64.8101 91.93 64.8101 84.49C64.8101 77.53 66.3201 71.05 68.9301 65.61C73.4001 56.3 81.0701 50.06 89.8401 49.76C90.0601 49.75 90.2801 49.75 90.5001 49.75C90.7201 49.75 90.9401 49.75 91.1601 49.76C99.9301 50.06 107.6 56.3 112.06 65.62C114.67 71.05 116.18 77.54 116.18 84.49C116.18 88.01 115.79 91.41 115.07 94.61" stroke="#CAA57B" stroke-width="1.5" stroke-linecap="round" stroke-linejoin="round"/>
<path d="M55.75 84.49H125.24" stroke="#CAA57B" stroke-width="1.5" stroke-linecap="round" stroke-linejoin="round"/>
</g>
<defs>
<clipPath id="clip0_61_982">
<rect width="76.03" height="76.5" fill="white" transform="translate(55 49)"/>
</clipPath>
</defs>
</svg>
