<svg width="174" height="178" viewBox="0 0 174 178" fill="none" xmlns="http://www.w3.org/2000/svg">
<rect x="0.707107" y="89.272" width="125.25" height="124.286" rx="9.5" transform="rotate(-45 0.707107 89.272)" stroke="#DCDCDC"/>
<g clip-path="url(#clip0_61_997)">
<path d="M130.64 65.6499L94.0801 53.9599C93.93 53.9199 93.7701 53.9199 93.62 53.9599L57.07 65.6499C56.76 65.7499 56.55 66.0399 56.55 66.3599V70.2399C56.55 70.6499 56.88 70.9899 57.3 70.9899H61.55V74.1099C61.55 74.5199 61.89 74.8599 62.3 74.8599H65C65 74.8599 64.99 74.9099 64.99 74.9399V81.1499C64.99 81.5699 65.33 81.8999 65.74 81.8999H67.27V106.29H65.74C65.33 106.29 64.99 106.63 64.99 107.04V112.5H62.3C61.89 112.5 61.55 112.84 61.55 113.25V121C61.55 121.41 61.89 121.75 62.3 121.75H125.4C125.82 121.75 126.15 121.41 126.15 121V113.25C126.15 112.84 125.82 112.5 125.4 112.5H122.72V107.04C122.72 106.63 122.38 106.29 121.97 106.29H120.44V81.8999H121.97C122.38 81.8999 122.72 81.5699 122.72 81.1499V74.9399C122.72 74.9399 122.72 74.8899 122.71 74.8599H125.4C125.82 74.8599 126.15 74.5199 126.15 74.1099V70.9899H130.41C130.82 70.9899 131.16 70.6499 131.16 70.2399V66.3599C131.16 66.0399 130.95 65.7499 130.64 65.6499ZM89.3 106.29C88.89 106.29 88.55 106.63 88.55 107.04V112.5H75.59V107.04C75.59 106.63 75.26 106.29 74.84 106.29H73.32V81.8999H74.84C75.26 81.8999 75.59 81.5699 75.59 81.1499V74.9399C75.59 74.9399 75.59 74.8899 75.58 74.8599H88.5601C88.5601 74.8599 88.55 74.9099 88.55 74.9399V81.1499C88.55 81.5699 88.89 81.8999 89.3 81.8999H90.8301V106.29H89.3ZM99.14 74.8599H112.12C112.12 74.8599 112.11 74.9099 112.11 74.9399V81.1499C112.11 81.5699 112.45 81.8999 112.86 81.8999H114.39V106.29H112.86C112.45 106.29 112.11 106.63 112.11 107.04V112.5H99.1501V107.04C99.1501 106.63 98.82 106.29 98.4001 106.29H96.8801V81.8999H98.4001C98.82 81.8999 99.1501 81.5699 99.1501 81.1499V74.9399C99.1501 74.9399 99.15 74.8899 99.14 74.8599Z" fill="#F2F1E3"/>
<path d="M103.41 109.32H120.85V117.06H57.76V109.32H96.13" stroke="#CAA57B" stroke-width="1.5" stroke-linecap="round" stroke-linejoin="round"/>
<path d="M97.14 66.3101H120.86V70.1801H57.76V66.3101H88.24" stroke="#CAA57B" stroke-width="1.5" stroke-linecap="round" stroke-linejoin="round"/>
<path d="M72.36 56.17L89.31 50.75L125.87 62.43V66.3H99.98" stroke="#CAA57B" stroke-width="1.5" stroke-linecap="round" stroke-linejoin="round"/>
<path d="M87.03 66.3099H52.75V62.4399L63.77 58.9199" stroke="#CAA57B" stroke-width="1.5" stroke-linecap="round" stroke-linejoin="round"/>
<path d="M70.2899 103.11H61.1899V109.32H70.2899V103.11Z" stroke="#CAA57B" stroke-width="1.5" stroke-linecap="round" stroke-linejoin="round"/>
<path d="M70.2899 71.01H61.1899V77.22H70.2899V71.01Z" stroke="#CAA57B" stroke-width="1.5" stroke-linecap="round" stroke-linejoin="round"/>
<path d="M63.47 87.8V77.23H68.02V103.12H63.47V93.68" stroke="#CAA57B" stroke-width="1.5" stroke-linecap="round" stroke-linejoin="round"/>
<path d="M93.86 103.11H84.76V109.32H93.86V103.11Z" stroke="#CAA57B" stroke-width="1.5" stroke-linecap="round" stroke-linejoin="round"/>
<path d="M93.86 71.01H84.76V77.22H93.86V71.01Z" stroke="#CAA57B" stroke-width="1.5" stroke-linecap="round" stroke-linejoin="round"/>
<path d="M91.58 77.23H87.03V103.12H91.58V77.23Z" stroke="#CAA57B" stroke-width="1.5" stroke-linecap="round" stroke-linejoin="round"/>
<path d="M117.42 103.11H108.32V109.32H117.42V103.11Z" stroke="#CAA57B" stroke-width="1.5" stroke-linecap="round" stroke-linejoin="round"/>
<path d="M117.42 71.01H108.32V77.22H117.42V71.01Z" stroke="#CAA57B" stroke-width="1.5" stroke-linecap="round" stroke-linejoin="round"/>
<path d="M115.14 94.28V103.11H110.59V77.22H115.14V88" stroke="#CAA57B" stroke-width="1.5" stroke-linecap="round" stroke-linejoin="round"/>
</g>
<defs>
<clipPath id="clip0_61_997">
<rect width="79.16" height="71.75" fill="white" transform="translate(52 50)"/>
</clipPath>
</defs>
</svg>
