<svg width="174" height="179" viewBox="0 0 174 179" fill="none" xmlns="http://www.w3.org/2000/svg">
<rect x="0.707107" y="90.1343" width="125.25" height="124.286" rx="9.5" transform="rotate(-45 0.707107 90.1343)" stroke="#DCDCDC"/>
<g clip-path="url(#clip0_65_1051)">
<path d="M77.9852 58.9023C78.5552 58.9023 79.1352 58.8323 79.7152 58.6823C82.8952 57.8723 85.0152 55.0123 85.0152 51.8723C85.0152 51.2923 84.9452 50.7123 84.7952 50.1323C83.8352 46.3723 80.0052 44.1023 76.2452 45.0523C72.4852 46.0023 70.2052 49.8423 71.1652 53.6023C71.9752 56.7823 74.8452 58.9023 77.9852 58.9023Z" fill="#F2F1E3"/>
<path d="M117.795 110.612L97.9651 74.3024C98.7951 73.0524 98.7951 71.4224 97.9351 70.1624C97.2251 69.1324 96.0551 68.5324 94.8251 68.5424L91.1351 61.7824C90.9351 61.4224 90.4851 61.2924 90.1151 61.4824C89.7551 61.6824 89.6251 62.1424 89.8151 62.5024L93.3051 68.8924C93.1151 68.9724 92.9351 69.0724 92.7651 69.1924L86.8951 73.2124L83.9851 68.9524C83.1251 67.7024 82.3851 66.3824 81.7751 65.0224C81.2951 63.9524 80.5051 63.0824 79.4851 62.5124C79.4751 62.5024 79.3851 62.4624 79.3751 62.4524C79.2751 62.4024 79.1651 62.3524 79.1351 62.3424C78.8451 62.1924 78.5451 62.0724 78.2151 61.9924L72.6651 60.5024C71.2951 60.1324 69.8951 60.3224 68.7051 60.9524C68.9751 59.0224 67.7751 57.1124 65.8351 56.5724L59.1051 54.6824C54.9451 53.5124 50.5951 55.9524 49.4151 60.1224L44.6251 77.2224C44.2151 78.6624 44.3951 80.1824 45.1351 81.4924C45.8651 82.7924 47.0651 83.7424 48.5151 84.1424L59.8451 87.3324L56.2851 100.652L50.2551 107.322C49.4451 108.222 49.0251 109.372 49.0851 110.582C49.1451 111.792 49.6751 112.902 50.5751 113.712C51.4151 114.472 52.4751 114.882 53.6051 114.882H53.8451C55.0551 114.812 56.1551 114.292 56.9551 113.392L64.3351 105.242C64.4151 105.152 64.4751 105.052 64.5051 104.932L68.0351 91.7424L73.3551 95.6724C73.1951 95.8124 73.0751 96.0124 73.0751 96.2424V110.962C73.0751 111.372 73.4151 111.712 73.8251 111.712C74.2351 111.712 74.5751 111.372 74.5751 110.962V96.5624L77.8651 98.9924L81.9951 111.352C82.4251 112.652 83.4151 113.682 84.6951 114.162C85.9751 114.642 87.3951 114.512 88.5851 113.822C90.4151 112.762 91.2351 110.472 90.5451 108.382L85.6451 93.7024C85.5751 93.5024 85.4351 93.3524 85.2551 93.2724L77.1151 87.0024L79.9851 76.3024L84.3351 82.6424C84.4451 82.8024 84.6051 82.9124 84.7851 82.9524C84.8951 83.0524 85.0251 83.1224 85.1651 83.1424C85.3651 83.1824 85.5651 83.1424 85.7251 83.0224L96.8451 75.4024L116.475 111.312C116.605 111.562 116.865 111.712 117.135 111.712C117.255 111.712 117.375 111.682 117.485 111.612C117.855 111.412 117.985 110.962 117.785 110.602L117.795 110.612Z" fill="#F2F1E3"/>
<path d="M143.235 109.022C143.145 109.192 142.975 109.282 142.795 109.282H85.615C84.985 107.282 84.285 105.642 83.625 104.342L88.555 95.8123L90.345 92.7023C90.445 92.5523 90.615 92.4523 90.795 92.4523H94.175L95.175 90.5723L96.295 88.4623L99.895 81.6923L104.545 72.9223C104.575 72.8623 104.605 72.8123 104.655 72.7623C104.655 72.7523 104.675 72.7423 104.685 72.7323C104.705 72.7023 104.735 72.6823 104.765 72.6723C104.835 72.6423 104.905 72.6223 104.975 72.6123C104.975 72.6123 104.975 72.6123 104.995 72.6123H105.045C105.045 72.6123 105.115 72.6123 105.145 72.6323C105.175 72.6323 105.195 72.6423 105.205 72.6523C105.265 72.6723 105.315 72.7023 105.365 72.7523C105.395 72.7723 105.415 72.8023 105.435 72.8223C105.455 72.8423 105.465 72.8723 105.475 72.9023L112.275 86.6323L112.545 87.1923H115.735C115.925 87.1923 116.085 87.2923 116.185 87.4423L117.295 89.3123L120.275 85.0023L122.525 81.7423C122.525 81.7423 122.545 81.7123 122.565 81.7023C122.595 81.6523 122.645 81.6123 122.695 81.5823C122.745 81.5623 122.785 81.5523 122.825 81.5323C122.845 81.5323 122.875 81.5223 122.905 81.5223H122.935C122.935 81.5223 122.975 81.5223 122.985 81.5323H123.065C123.065 81.5323 123.125 81.5523 123.145 81.5723C123.195 81.5823 123.235 81.6123 123.265 81.6423C123.295 81.6623 123.335 81.7023 123.355 81.7423C123.365 81.7423 123.385 81.7723 123.385 81.7823L134.375 101.352L134.905 96.6023C134.935 96.3823 135.085 96.2123 135.305 96.1623C135.515 96.1123 135.735 96.2123 135.855 96.3923L143.225 108.512C143.325 108.672 143.325 108.872 143.225 109.032L143.235 109.022Z" fill="#F2F1E3"/>
<path d="M111.505 87.7323L109.985 85.1723H106.475C106.475 85.1723 105.275 82.7423 103.845 79.8623" stroke="#CAA57B" stroke-width="1.5" stroke-linecap="round" stroke-linejoin="round"/>
<path d="M101.955 76.0323L99.265 70.5823L88.725 90.4323H85.035L82.415 94.9623" stroke="#CAA57B" stroke-width="1.5" stroke-linecap="round" stroke-linejoin="round"/>
<path d="M85.0151 106.252H137.035C137.035 106.252 136.105 104.722 134.895 102.742" stroke="#CAA57B" stroke-width="1.5" stroke-linecap="round" stroke-linejoin="round"/>
<path d="M132.455 98.7322C130.945 96.2622 129.655 94.1222 129.655 94.1222L128.955 100.442C128.955 100.442 125.555 94.3822 122.405 88.7822" stroke="#CAA57B" stroke-width="1.5" stroke-linecap="round" stroke-linejoin="round"/>
<path d="M122.345 88.6923C119.665 83.9123 117.185 79.5023 117.185 79.5023C117.185 79.5023 109.955 89.9823 104.545 97.8323" stroke="#CAA57B" stroke-width="1.5" stroke-linecap="round" stroke-linejoin="round"/>
<path d="M101.125 102.782L98.7351 106.252" stroke="#CAA57B" stroke-width="1.5" stroke-linecap="round" stroke-linejoin="round"/>
<path d="M84.3149 101.512L88.3449 95.4723L91.4549 100.862L93.9649 98.8123V106.252" stroke="#CAA57B" stroke-width="1.5" stroke-linecap="round" stroke-linejoin="round"/>
<path d="M99.2651 70.5923L100.175 86.7523L95.3151 91.2023L93.9651 85.3423L90.9551 86.2423" stroke="#CAA57B" stroke-width="1.5" stroke-linecap="round" stroke-linejoin="round"/>
<path d="M117.185 79.5023C117.185 79.5023 117.495 83.6923 117.785 87.6023" stroke="#CAA57B" stroke-width="1.5" stroke-linecap="round" stroke-linejoin="round"/>
<path d="M118.035 91.0723L118.265 94.2523L113.525 97.4123L111.415 92.6723L107.485 93.6023" stroke="#CAA57B" stroke-width="1.5" stroke-linecap="round" stroke-linejoin="round"/>
<path d="M74.2749 59.1223C77.7432 59.1223 80.5549 56.3106 80.5549 52.8423C80.5549 49.3739 77.7432 46.5623 74.2749 46.5623C70.8065 46.5623 67.9949 49.3739 67.9949 52.8423C67.9949 56.3106 70.8065 59.1223 74.2749 59.1223Z" stroke="#CAA57B" stroke-width="1.5" stroke-linecap="round" stroke-linejoin="round"/>
<path d="M93.365 75.2223C93.215 75.3923 93.025 75.5623 92.835 75.6923L81.605 83.3923L81.405 83.1023L81.255 83.2023L75.985 75.5123L72.555 88.2723L81.205 94.9323H81.225L85.005 106.242L86.125 109.602C86.695 111.302 86.065 113.252 84.505 114.152C82.375 115.402 79.745 114.342 79.005 112.102L74.805 99.5223L63.885 91.4623L60.065 105.712L52.695 113.862C51.305 115.412 48.905 115.532 47.365 114.132C45.815 112.732 45.695 110.342 47.095 108.802L53.245 101.992L56.595 89.5023L58.345 82.9723L63.625 64.1723C64.705 62.5123 66.755 61.6623 68.765 62.2023L74.315 63.6823C74.585 63.7523 74.835 63.8423 75.075 63.9723C75.195 64.0223 75.295 64.0723 75.415 64.1323C76.295 64.6323 76.975 65.3923 77.385 66.2923C78.025 67.7023 78.785 69.0623 79.665 70.3423L82.995 75.2123L89.475 70.7623C89.845 70.5123 90.275 70.3423 90.695 70.2723C91.795 70.1023 92.945 70.5623 93.615 71.5323C94.405 72.6923 94.265 74.1923 93.375 75.1923L93.365 75.2223Z" stroke="#CAA57B" stroke-width="1.5" stroke-linecap="round" stroke-linejoin="round"/>
<path d="M113.435 111.942L93.365 75.2223" stroke="#CAA57B" stroke-width="1.5" stroke-linecap="round" stroke-linejoin="round"/>
<path d="M90.6949 70.3023L86.7649 63.1223" stroke="#CAA57B" stroke-width="1.5" stroke-linecap="round" stroke-linejoin="round"/>
<path d="M70.125 97.2223V111.942" stroke="#CAA57B" stroke-width="1.5" stroke-linecap="round" stroke-linejoin="round"/>
<path d="M64.165 62.2523L63.625 64.1723L58.345 82.9723L57.005 87.7623L45.015 84.3923C42.425 83.6623 40.915 80.9723 41.645 78.3923L46.435 61.2923C47.505 57.5223 51.415 55.3023 55.195 56.3723L61.925 58.2623C63.655 58.7523 64.645 60.5323 64.175 62.2423L64.165 62.2523Z" stroke="#CAA57B" stroke-width="1.5" stroke-linecap="round" stroke-linejoin="round"/>
</g>
<defs>
<clipPath id="clip0_65_1051">
<rect width="102.59" height="71.03" fill="white" transform="translate(40.7051 44.8323)"/>
</clipPath>
</defs>
</svg>
