<svg width="23" height="27" viewBox="0 0 23 27" fill="none" xmlns="http://www.w3.org/2000/svg">
<path d="M4.5718 9.43359C4.76255 9.43359 4.94714 9.44565 5.12558 9.48184C5.44553 9.53611 5.75318 9.6326 6.03622 9.76527L6.89149 15.066C6.41771 15.5123 5.80241 15.8258 5.12558 15.9404C6.12852 18.7626 8.41129 21.006 11.2971 21.9889C11.4078 21.3195 11.7278 20.7225 12.1831 20.2582L17.5916 21.0964C17.727 21.3738 17.8254 21.6693 17.8808 21.9889C17.9116 22.1638 17.93 22.3447 17.93 22.5317C17.93 24.3408 16.4348 25.8001 14.5889 25.8062C7.2176 25.8062 1.23687 19.9446 1.23071 12.7141C1.23071 10.905 2.7259 9.43962 4.5718 9.43962V9.43359Z" stroke="white" stroke-width="2" stroke-linecap="round" stroke-linejoin="round"/>
<path d="M11.5862 10.0244C14.4966 10.0244 16.8532 12.3341 16.8532 15.1864" stroke="white" stroke-width="2" stroke-linecap="round" stroke-linejoin="round"/>
<path d="M11.9307 5.20605C17.3638 5.20605 21.7632 9.52383 21.7632 14.8427" stroke="white" stroke-width="2" stroke-linecap="round" stroke-linejoin="round"/>
</svg>
