<svg width="27" height="26" viewBox="0 0 27 26" fill="none" xmlns="http://www.w3.org/2000/svg">
<path fill-rule="evenodd" clip-rule="evenodd" d="M2.51176 10.4224C2.51176 5.77731 6.27736 2.01172 10.9225 2.01172C15.5676 2.01172 19.3332 5.77731 19.3332 10.4224C19.3332 15.0675 15.5676 18.8331 10.9225 18.8331C6.27736 18.8331 2.51176 15.0675 2.51176 10.4224ZM10.9225 0.0117188C5.17279 0.0117188 0.511765 4.67275 0.511765 10.4224C0.511765 16.1721 5.17279 20.8331 10.9225 20.8331C13.4372 20.8331 15.7437 19.9415 17.5431 18.4571L24.7811 25.6951C25.1717 26.0857 25.8048 26.0857 26.1953 25.6951C26.5859 25.3046 26.5859 24.6715 26.1953 24.2809L18.9573 17.0429C20.4416 15.2435 21.3332 12.9371 21.3332 10.4224C21.3332 4.67275 16.6721 0.0117188 10.9225 0.0117188Z" fill="#CAA57B"/>
</svg>
