<svg width="27" height="28" viewBox="0 0 27 28" fill="none" xmlns="http://www.w3.org/2000/svg">
<path fill-rule="evenodd" clip-rule="evenodd" d="M2.51172 11.4224C2.51172 6.77731 6.27731 3.01172 10.9224 3.01172C15.5675 3.01172 19.3331 6.77731 19.3331 11.4224C19.3331 16.0675 15.5675 19.8331 10.9224 19.8331C6.27731 19.8331 2.51172 16.0675 2.51172 11.4224ZM10.9224 1.01172C5.17275 1.01172 0.511719 5.67275 0.511719 11.4224C0.511719 17.1721 5.17275 21.8331 10.9224 21.8331C13.4372 21.8331 15.7437 20.9415 17.543 19.4571L24.7811 26.6951C25.1716 27.0857 25.8048 27.0857 26.1953 26.6951C26.5858 26.3046 26.5858 25.6715 26.1953 25.2809L18.9572 18.0429C20.4415 16.2435 21.3331 13.9371 21.3331 11.4224C21.3331 5.67275 16.6721 1.01172 10.9224 1.01172Z" fill="#CAA57B"/>
</svg>
