<svg width="238" height="136" viewBox="0 0 238 136" fill="none" xmlns="http://www.w3.org/2000/svg">
<path fill-rule="evenodd" clip-rule="evenodd" d="M4.89957 136H0.373535L70.9315 0H75.4575L4.89957 136ZM13.9227 136H9.40634L79.9643 0H84.4903L13.9227 136ZM18.4295 136H22.9556L93.5135 0H88.9971L18.4295 136ZM31.9884 136H27.4623L98.0203 0H102.546L31.9884 136ZM36.4951 136H41.0212L111.579 0H107.053L36.4951 136ZM50.0443 136H45.5279L116.086 0H120.612L50.0443 136ZM54.5511 136H59.0772L129.635 0H125.119L54.5511 136ZM68.11 136H63.5839L134.142 0H138.668L68.11 136ZM72.6167 136H77.1428L147.701 0H143.175L72.6167 136ZM86.1659 136H81.6495L152.208 0H156.724L86.1659 136ZM90.6727 136H95.1988L165.757 0H161.24L90.6727 136ZM104.232 136H99.7055L170.263 0H174.79L104.232 136ZM108.738 136H113.255L183.822 0H179.296L108.738 136ZM122.288 136H117.762L188.329 0H192.846L122.288 136ZM126.794 136H131.32L201.878 0H197.352L126.794 136ZM140.353 136H135.827L206.385 0H210.911L140.353 136ZM144.86 136H149.376L219.944 0H215.418L144.86 136ZM158.409 136H153.883L224.451 0H228.967L158.409 136ZM162.916 136H167.442L238 0H233.474L162.916 136Z" fill="url(#paint0_linear_28_938)"/>
<defs>
<linearGradient id="paint0_linear_28_938" x1="90.0439" y1="136" x2="110.967" y2="26.1539" gradientUnits="userSpaceOnUse">
<stop stop-color="#336ABB"/>
<stop offset="1" stop-color="#336ABB" stop-opacity="0"/>
</linearGradient>
</defs>
</svg>
