<svg width="267" height="68" viewBox="0 0 267 68" fill="none" xmlns="http://www.w3.org/2000/svg">
<g clip-path="url(#clip0_28_980)">
<path d="M91.1561 36.6792L59.7135 68.0083H0L68.1631 0C78.8105 10.6089 86.5026 23.2003 91.1561 36.6792Z" fill="#CAA57B"/>
<path d="M156.064 68H96.3923C96.3923 57.3911 94.7024 46.7738 91.156 36.6709L127.835 0C146.682 18.7792 156.064 43.4145 156.064 68Z" fill="#CAA57B"/>
<path d="M0 15.4945L0.632682 15.1876C7.00112 12.0937 12.1375 6.97585 15.2343 0.630398L15.5423 0L15.5923 0.0995365C18.739 6.86802 24.2001 12.3093 30.9931 15.4447L31.093 15.4945C24.2167 18.6382 18.7057 24.1376 15.5506 30.989L15.2426 30.3586C12.1458 24.0215 7.00112 18.8953 0.641006 15.8097L0.00832476 15.5028L0 15.4945Z" fill="#6595BD"/>
<path d="M176.027 12L172.223 24.4006H174.487L175.428 21.1408H179.723L180.764 24.4006H183.07L179.074 12H176.035H176.027ZM175.927 19.3574L177.542 13.5677L179.19 19.3574H175.927Z" fill="white"/>
<path d="M187.44 12H185.201V24.4006H192.485V22.584H187.44V12Z" fill="white"/>
<path d="M203.582 12.0249L200.452 20.7426L197.413 12H194.516V24.4006H196.548V15.1022L199.22 22.6255H201.567L201.551 22.6089L204.165 15.3842V24.4006H206.313V12H203.565L203.582 12.0249Z" fill="white"/>
<path d="M212.248 12L208.452 24.4006H210.708L211.649 21.1408H215.953L216.985 24.4006H219.299L215.295 12H212.256H212.248ZM212.156 19.3574L213.763 13.5677L215.42 19.3574H212.156Z" fill="white"/>
<path d="M219.174 13.7253H222.679V24.4006H224.927V13.7253H228.398V12H219.174V13.7253Z" fill="white"/>
<path d="M236.681 12L233.909 17.6155L231.087 12H228.74L232.719 19.3574V24.4006H234.975V19.3574L238.937 12H236.681Z" fill="white"/>
<path d="M172.206 32.0236H175.711V42.7072H177.95V32.0236H181.43V30.3066H172.206V32.0236Z" fill="white"/>
<path d="M190.604 30.7212C189.863 30.3065 188.972 30.0908 187.907 30.0825H187.715C186.641 30.0825 185.734 30.2982 184.976 30.7212C184.219 31.1359 183.644 31.7415 183.261 32.5046C182.879 33.2594 182.679 34.1386 182.679 35.1257V37.9044C182.679 38.8832 182.879 39.7541 183.261 40.509C183.644 41.2555 184.219 41.8527 184.976 42.284C185.035 42.3172 185.093 42.3504 185.151 42.3753C185.884 42.7568 186.758 42.9393 187.79 42.9393H187.907C188.972 42.9227 189.855 42.7154 190.604 42.2923C191.37 41.861 191.944 41.2638 192.327 40.5173C192.71 39.7624 192.91 38.8915 192.91 37.9127V35.134C192.91 34.1469 192.71 33.2677 192.327 32.5129C191.944 31.7498 191.37 31.1442 190.604 30.7295V30.7212ZM190.645 37.9376C190.645 38.9579 190.412 39.7624 189.938 40.3348C189.472 40.8988 188.797 41.1891 187.915 41.2057C187.882 41.2057 187.84 41.2057 187.807 41.2057H187.732C186.808 41.1891 186.117 40.8988 185.659 40.3265C185.176 39.7459 184.943 38.9413 184.943 37.9293V35.1008C184.943 34.0723 185.176 33.2594 185.659 32.6788C186.117 32.0981 186.808 31.8078 187.732 31.7912H187.807C187.807 31.7912 187.882 31.7912 187.915 31.7912C188.797 31.8078 189.472 32.0981 189.938 32.6705C190.412 33.2594 190.645 34.0723 190.645 35.0925V37.921V37.9376Z" fill="white"/>
<path d="M202.908 38.7009C202.908 39.4889 202.7 40.111 202.283 40.5589C201.867 40.9985 201.218 41.2142 200.352 41.2142C199.486 41.2142 198.829 40.9985 198.429 40.5589C198.013 40.111 197.813 39.4972 197.813 38.7009V30.3066H195.549V38.7009C195.549 39.5138 195.732 40.2354 196.081 40.8741C196.439 41.5128 196.972 42.0105 197.696 42.3754C198.421 42.7404 199.303 42.9312 200.352 42.9312C201.909 42.9312 203.107 42.5496 203.923 41.7616C204.739 40.9819 205.147 39.9617 205.147 38.7009V30.3066H202.908V38.7009Z" fill="white"/>
<path d="M216.452 36.2622C216.843 35.7646 217.051 35.1839 217.051 34.5038V33.5913C217.051 32.5711 216.652 31.7665 215.861 31.1859C215.07 30.597 214.013 30.3066 212.698 30.3066H208.51V42.7072H210.75V37.8133H212.631L215.212 42.7072H217.659L214.795 37.4069C215.511 37.1332 216.061 36.7516 216.46 36.2622H216.452ZM214.213 35.6899C213.83 35.9802 213.297 36.1295 212.631 36.1295H210.75V31.9905H212.614C213.28 31.9905 213.821 32.1398 214.204 32.4384C214.604 32.7287 214.795 33.1517 214.795 33.6909V34.454C214.795 34.9849 214.604 35.3996 214.213 35.6899Z" fill="white"/>
<path d="M219.574 32.0236H221.164V40.9819H219.574V42.7072H225.01V40.9819H223.403V32.0236H225.01V30.3066H219.574V32.0236Z" fill="white"/>
<path d="M233.127 35.6317L231.47 35.1008C230.771 34.8851 230.271 34.6529 229.955 34.4041C229.647 34.1386 229.489 33.8483 229.489 33.5331V33.2345C229.489 32.8364 229.688 32.5046 230.071 32.2143C230.463 31.9239 231.037 31.7746 231.778 31.7746C232.411 31.7746 232.952 31.8576 233.418 32.0152C233.876 32.1894 234.392 32.488 234.958 32.9027L236.049 31.6834C235.474 31.1525 234.833 30.7461 234.117 30.489C233.418 30.2152 232.602 30.0742 231.695 30.0742C230.787 30.0742 229.988 30.2235 229.314 30.5138C228.648 30.7959 228.132 31.1857 227.782 31.6668C227.432 32.1479 227.258 32.6788 227.258 33.2428V33.6409C227.258 35.1091 228.232 36.1542 230.18 36.7846L232.019 37.3901C232.752 37.6224 233.251 37.8712 233.509 38.1284C233.776 38.3938 233.917 38.7422 233.917 39.1901V39.4141C233.917 39.8786 233.693 40.2767 233.235 40.6251C232.785 40.9652 232.144 41.1476 231.287 41.1476C230.754 41.1476 230.296 41.0979 229.922 41.0066C229.547 40.9154 229.214 40.791 228.948 40.6417C228.673 40.4924 228.307 40.2767 227.857 39.9864L226.741 41.3135C227.907 42.3753 229.455 42.9227 231.403 42.9227C232.327 42.9227 233.143 42.7734 233.859 42.4914C234.567 42.2011 235.133 41.7863 235.532 41.2555C235.94 40.7246 236.14 40.1274 236.14 39.4389V38.9496C236.14 38.0703 235.882 37.3736 235.358 36.851C234.825 36.3284 234.092 35.922 233.143 35.6234L233.127 35.6317Z" fill="white"/>
<path d="M248.028 30.3066L248.045 30.3232L244.923 39.0493L241.884 30.3066H238.996V42.7072H241.01V33.4006L243.682 40.9322H246.038L246.03 40.9073L248.636 33.6909V42.7072H250.792V30.3066H248.028Z" fill="white"/>
<path d="M180.239 54.9995C180.756 54.8668 181.188 54.6346 181.546 54.2945C181.896 53.9544 182.079 53.4816 182.079 52.8927V52.113C182.079 51.1508 181.68 50.396 180.889 49.8485C180.098 49.3011 179.024 49.0273 177.675 49.0273H173.838V61.4279H177.659C178.633 61.4279 179.482 61.2869 180.198 61.0215C180.914 60.7478 181.48 60.3745 181.879 59.8934C182.271 59.404 182.479 58.8483 182.479 58.2262V57.5211C182.479 56.7746 182.254 56.1857 181.804 55.7792C181.355 55.3811 180.839 55.124 180.256 55.0078L180.239 54.9995ZM176.06 50.6614H177.684C178.35 50.6614 178.874 50.7941 179.249 51.043C179.623 51.3084 179.806 51.6982 179.806 52.2374V52.8844C179.806 53.3821 179.648 53.7553 179.332 54.0125C179.016 54.253 178.574 54.3857 178.008 54.3857H176.06V50.6531V50.6614ZM180.231 58.11C180.231 58.6658 180.006 59.0805 179.565 59.3625C179.116 59.6446 178.491 59.7939 177.692 59.7939H176.069V55.97H178.133C178.808 55.97 179.324 56.1027 179.673 56.3599C180.04 56.6253 180.231 56.9986 180.231 57.4631V58.1018V58.11Z" fill="white"/>
<path d="M192.369 57.4216C192.369 58.2096 192.169 58.8317 191.744 59.2796C191.328 59.7192 190.687 59.9266 189.813 59.9266C188.939 59.9266 188.323 59.7192 187.907 59.2962C187.907 59.2962 187.907 59.2796 187.89 59.2713C187.49 58.8234 187.274 58.2096 187.274 57.4133V49.019H185.01V57.4133C185.01 58.2345 185.201 58.9478 185.551 59.5948C185.9 60.2335 186.45 60.7229 187.166 61.0878C187.39 61.204 187.64 61.3035 187.898 61.3781C188.456 61.5523 189.097 61.6353 189.805 61.6353C191.37 61.6353 192.56 61.2537 193.384 60.4657C194.2 59.686 194.608 58.6741 194.608 57.405V49.0107H192.36V57.405L192.369 57.4216Z" fill="white"/>
<path d="M205.921 54.9829C206.313 54.4853 206.521 53.9046 206.521 53.2245V52.3038C206.521 51.2918 206.113 50.4872 205.33 49.9066C204.531 49.3177 203.474 49.0273 202.159 49.0273H197.971V61.4279H200.211V56.5258H202.092L204.673 61.4279H207.12L204.265 56.1276C204.972 55.8539 205.522 55.4723 205.93 54.9829H205.921ZM203.682 54.4106C203.291 54.7092 202.758 54.8585 202.084 54.8585H200.202V50.7112H202.067C202.741 50.7112 203.274 50.8688 203.674 51.1591C204.057 51.4494 204.256 51.8724 204.256 52.4116V53.1747C204.256 53.7056 204.065 54.1203 203.682 54.4106Z" fill="white"/>
<path d="M209.667 61.4196H216.935V59.686H211.907V55.9866H216.552V54.2696H211.907V50.7443H216.935V49.0273H209.667V61.4196Z" fill="white"/>
<path d="M222.038 49.0273L218.242 61.4279H220.498L221.439 58.1764H225.743L226.766 61.4279H229.089L225.085 49.0273H222.046H222.038ZM221.938 56.3682L223.553 50.5867L225.201 56.3682H221.938Z" fill="white"/>
<path d="M238.013 49.0273V57.4216C238.013 58.2096 237.805 58.8317 237.38 59.2796C236.973 59.7192 236.323 59.9266 235.449 59.9266C234.575 59.9266 233.942 59.7109 233.526 59.2796C233.126 58.8317 232.91 58.2179 232.91 57.4216V49.0273H230.654V57.4216C230.654 58.2428 230.837 58.9561 231.195 59.6031C231.545 60.2418 232.086 60.7312 232.81 61.0961C233.518 61.4611 234.409 61.6519 235.449 61.6519C237.014 61.6519 238.205 61.2703 239.029 60.4823C239.845 59.7026 240.252 58.6907 240.252 57.4216V49.0273H238.013Z" fill="white"/>
</g>
<defs>
<clipPath id="clip0_28_980">
<rect width="267" height="68" fill="white"/>
</clipPath>
</defs>
</svg>
